<?xml version="1.0" encoding="UTF-8" standalone="no"?>
<!DOCTYPE svg PUBLIC "-//W3C//DTD SVG 1.1//EN" "http://www.w3.org/Graphics/SVG/1.1/DTD/svg11.dtd">
<svg width="100%" height="100%" viewBox="0 0 1109 284" version="1.1" xmlns="http://www.w3.org/2000/svg" xmlns:xlink="http://www.w3.org/1999/xlink" xml:space="preserve" xmlns:serif="http://www.serif.com/" style="fill-rule:evenodd;clip-rule:evenodd;stroke-linejoin:round;stroke-miterlimit:1.41421;">
    <g transform="matrix(33.7059,0,0,33.7059,-5066.27,-4379.11)">
        <path d="M156.145,136.59C156.305,136.75 156.385,136.94 156.385,137.16C156.385,137.38 156.305,137.574 156.145,137.742C155.985,137.894 155.795,137.97 155.575,137.97C155.355,137.97 155.161,137.894 154.993,137.742L152.197,135.27L152.197,137.154C152.197,137.378 152.119,137.568 151.963,137.724C151.807,137.88 151.613,137.958 151.381,137.958C151.157,137.958 150.965,137.88 150.805,137.724C150.645,137.568 150.565,137.378 150.565,137.154L150.565,131.106C150.565,130.89 150.645,130.702 150.805,130.542C150.965,130.382 151.157,130.302 151.381,130.302C151.613,130.302 151.807,130.382 151.963,130.542C152.119,130.702 152.197,130.89 152.197,131.106L152.197,132.99L154.993,130.542C155.161,130.382 155.355,130.302 155.575,130.302C155.795,130.302 155.985,130.382 156.145,130.542C156.305,130.702 156.385,130.892 156.385,131.112C156.385,131.332 156.305,131.522 156.145,131.682L153.337,134.13L156.145,136.59Z" style="fill:rgb(21,220,163);fill-rule:nonzero;"/>
        <path d="M158.005,130.302C158.221,130.302 158.407,130.382 158.563,130.542C158.719,130.702 158.797,130.89 158.797,131.106L158.797,137.154C158.797,137.378 158.719,137.568 158.563,137.724C158.407,137.88 158.221,137.958 158.005,137.958C157.773,137.958 157.579,137.88 157.423,137.724C157.267,137.568 157.189,137.378 157.189,137.154L157.189,131.106C157.189,130.89 157.267,130.702 157.423,130.542C157.579,130.382 157.773,130.302 158.005,130.302Z" style="fill:rgb(21,220,163);fill-rule:nonzero;"/>
        <path d="M161.281,131.91L161.281,133.698L163.093,133.698C163.325,133.698 163.517,133.778 163.669,133.938C163.821,134.098 163.897,134.29 163.897,134.514C163.897,134.738 163.821,134.928 163.669,135.084C163.517,135.24 163.325,135.318 163.093,135.318L161.281,135.318L161.281,137.142C161.281,137.374 161.203,137.568 161.047,137.724C160.891,137.88 160.697,137.958 160.465,137.958C160.233,137.958 160.039,137.88 159.883,137.724C159.727,137.568 159.649,137.374 159.649,137.142L159.649,131.106C159.649,130.898 159.727,130.71 159.883,130.542C160.039,130.374 160.233,130.29 160.465,130.29L163.897,130.29C164.121,130.29 164.311,130.37 164.467,130.53C164.623,130.69 164.701,130.882 164.701,131.106C164.701,131.338 164.623,131.53 164.467,131.682C164.311,131.834 164.121,131.91 163.897,131.91L161.281,131.91Z" style="fill:rgb(21,220,163);fill-rule:nonzero;"/>
        <path d="M166.837,131.91L166.837,133.698L168.649,133.698C168.881,133.698 169.073,133.778 169.225,133.938C169.377,134.098 169.453,134.29 169.453,134.514C169.453,134.738 169.377,134.928 169.225,135.084C169.073,135.24 168.881,135.318 168.649,135.318L166.837,135.318L166.837,137.142C166.837,137.374 166.759,137.568 166.603,137.724C166.447,137.88 166.253,137.958 166.021,137.958C165.789,137.958 165.595,137.88 165.439,137.724C165.283,137.568 165.205,137.374 165.205,137.142L165.205,131.106C165.205,130.898 165.283,130.71 165.439,130.542C165.595,130.374 165.789,130.29 166.021,130.29L169.453,130.29C169.677,130.29 169.867,130.37 170.023,130.53C170.179,130.69 170.257,130.882 170.257,131.106C170.257,131.338 170.179,131.53 170.023,131.682C169.867,131.834 169.677,131.91 169.453,131.91L166.837,131.91Z" style="fill:rgb(21,220,163);fill-rule:nonzero;"/>
        <path d="M173.569,137.958C173.177,137.95 172.809,137.878 172.465,137.742C172.113,137.598 171.805,137.4 171.541,137.148C171.277,136.896 171.065,136.598 170.905,136.254C170.745,135.91 170.665,135.538 170.665,135.138L170.665,133.182C170.665,132.782 170.739,132.406 170.887,132.054C171.035,131.702 171.239,131.394 171.499,131.13C171.759,130.866 172.065,130.658 172.417,130.506C172.769,130.354 173.161,130.278 173.593,130.278C173.825,130.278 174.033,130.298 174.217,130.338C174.545,130.394 174.849,130.502 175.129,130.662C175.553,130.902 175.889,131.238 176.137,131.67C176.169,131.726 176.199,131.794 176.227,131.874C176.255,131.954 176.269,132.03 176.269,132.102C176.269,132.326 176.189,132.518 176.029,132.678C175.869,132.838 175.677,132.918 175.453,132.918C175.277,132.918 175.133,132.872 175.021,132.78C174.909,132.688 174.809,132.574 174.721,132.438C174.625,132.278 174.493,132.15 174.325,132.054C174.189,131.974 174.013,131.906 173.797,131.85C173.733,131.842 173.661,131.838 173.581,131.838C173.389,131.838 173.213,131.872 173.053,131.94C172.893,132.008 172.753,132.098 172.633,132.21C172.513,132.322 172.417,132.458 172.345,132.618C172.273,132.778 172.237,132.946 172.237,133.122L172.237,135.042C172.229,135.266 172.259,135.45 172.327,135.594C172.395,135.738 172.491,135.87 172.615,135.99C172.739,136.11 172.883,136.206 173.047,136.278C173.211,136.35 173.397,136.39 173.605,136.398C173.813,136.398 173.987,136.366 174.127,136.302C174.267,136.238 174.395,136.148 174.511,136.032C174.627,135.916 174.721,135.778 174.793,135.618C174.865,135.458 174.901,135.294 174.901,135.126L174.625,135.126C174.409,135.126 174.223,135.048 174.067,134.892C173.911,134.736 173.833,134.546 173.833,134.322C173.833,134.09 173.911,133.896 174.067,133.74C174.223,133.584 174.409,133.506 174.625,133.506L175.681,133.506C175.913,133.506 176.105,133.584 176.257,133.74C176.409,133.896 176.493,134.09 176.509,134.322L176.509,135.054C176.485,135.454 176.399,135.83 176.251,136.182C176.103,136.534 175.899,136.842 175.639,137.106C175.379,137.37 175.073,137.578 174.721,137.73C174.369,137.882 173.985,137.958 173.569,137.958Z" style="fill:rgb(21,220,163);fill-rule:nonzero;"/>
        <path d="M180.049,137.958C179.649,137.958 179.273,137.888 178.921,137.748C178.569,137.608 178.261,137.412 177.997,137.16C177.733,136.908 177.521,136.61 177.361,136.266C177.201,135.922 177.121,135.55 177.121,135.15L177.121,133.194C177.121,132.794 177.195,132.418 177.343,132.066C177.491,131.714 177.695,131.406 177.955,131.142C178.215,130.878 178.521,130.67 178.873,130.518C179.225,130.366 179.617,130.29 180.049,130.29C180.433,130.29 180.801,130.36 181.153,130.5C181.505,130.64 181.813,130.836 182.077,131.088C182.341,131.34 182.553,131.638 182.713,131.982C182.873,132.326 182.953,132.698 182.953,133.098L182.953,135.054C182.953,135.454 182.879,135.83 182.731,136.182C182.583,136.534 182.379,136.842 182.119,137.106C181.859,137.37 181.553,137.578 181.201,137.73C180.849,137.882 180.465,137.958 180.049,137.958ZM181.393,133.194C181.393,133.01 181.359,132.836 181.291,132.672C181.223,132.508 181.127,132.366 181.003,132.246C180.879,132.126 180.735,132.03 180.571,131.958C180.407,131.886 180.229,131.85 180.037,131.85C179.845,131.85 179.669,131.884 179.509,131.952C179.349,132.02 179.209,132.11 179.089,132.222C178.969,132.334 178.873,132.47 178.801,132.63C178.729,132.79 178.693,132.958 178.693,133.134L178.693,135.054C178.685,135.238 178.715,135.412 178.783,135.576C178.851,135.74 178.947,135.882 179.071,136.002C179.195,136.122 179.339,136.218 179.503,136.29C179.667,136.362 179.853,136.398 180.061,136.398C180.237,136.398 180.405,136.364 180.565,136.296C180.725,136.228 180.865,136.138 180.985,136.026C181.105,135.914 181.201,135.778 181.273,135.618C181.345,135.458 181.381,135.29 181.381,135.114L181.393,133.194Z" style="fill:rgb(21,220,163);fill-rule:nonzero;"/>
    </g>
</svg>
